<svg width="426.4" height="84.6" viewBox="0 0 426.4 84.6" xmlns="http://www.w3.org/2000/svg"><g id="svgGroup" stroke-linecap="round" fill-rule="evenodd" font-size="9pt" stroke="#ffffff" stroke-width="0.25mm" fill="#ffffff" style="stroke:#ffffff;stroke-width:0.25mm;fill:#ffffff"><path d="M 356 65.3 L 356 7.8 L 325.8 84.6 L 323.2 84.6 L 294.1 10.3 L 294.1 65.3 Q 294.1 73.057 294.486 76.861 A 36.305 36.305 0 0 0 294.5 77 L 303.8 78.2 Q 304.399 79.996 303.802 81.793 A 6.028 6.028 0 0 1 303.8 81.8 Q 295.2 81.6 291.6 81.6 Q 285.6 81.6 279.5 81.9 A 13.14 13.14 0 0 1 279.351 80.852 Q 279.245 79.787 279.36 78.916 A 5.636 5.636 0 0 1 279.5 78.2 L 288.6 77.2 L 288.6 18.3 Q 288.6 10.543 288.214 6.739 A 36.305 36.305 0 0 0 288.2 6.6 L 279.9 5.4 A 5.121 5.121 0 0 1 279.603 3.873 Q 279.571 2.976 279.873 2.08 A 5.7 5.7 0 0 1 279.9 2 L 301.9 2 L 327 67.8 L 352.7 2 Q 355 2.1 359.7 2.1 A 40.376 40.376 0 0 0 360.164 2.095 Q 362.538 2.063 375.4 1.8 Q 375.999 3.596 375.402 5.393 A 6.028 6.028 0 0 1 375.4 5.4 L 367.1 6.6 Q 366.707 10.331 366.7 18.015 A 307.298 307.298 0 0 0 366.7 18.3 L 366.7 77.2 L 374.8 78.2 Q 375.2 79.7 374.8 81.9 Q 368.5 81.6 361.1 81.6 Q 356.27 81.6 349.039 81.76 A 1037.427 1037.427 0 0 0 347.3 81.8 A 13.295 13.295 0 0 1 347.129 80.982 Q 346.803 79.111 347.3 78.2 L 355.6 77 Q 355.993 73.269 356 65.585 A 307.298 307.298 0 0 0 356 65.3 Z M 0 25.2 L 0.1 2 L 69.2 2 L 69.3 25.2 A 13.14 13.14 0 0 1 68.252 25.349 Q 67.187 25.455 66.316 25.34 A 5.636 5.636 0 0 1 65.6 25.2 L 60.9 7.1 L 40.1 7.1 L 40.1 77.2 L 50.2 78.2 Q 50.6 79.7 50.2 81.9 A 234.393 234.393 0 0 0 45.109 81.717 Q 42.836 81.659 40.309 81.629 A 458.769 458.769 0 0 0 35 81.6 Q 28.1 81.6 19.7 81.8 Q 19.101 80.004 19.698 78.207 A 6.028 6.028 0 0 1 19.7 78.2 L 29 77 Q 29.393 73.269 29.4 65.585 A 307.298 307.298 0 0 0 29.4 65.3 L 29.4 7.1 L 8.4 7.1 L 3.7 25.2 Q 2.2 25.6 0 25.2 Z M 145.6 51.4 L 145.6 46.3 Q 145.6 39.263 144.263 35.413 A 11.812 11.812 0 0 0 143.65 33.95 A 7.223 7.223 0 0 0 141.806 31.585 Q 140.391 30.425 138.376 30.171 A 9.408 9.408 0 0 0 137.2 30.1 A 11.664 11.664 0 0 0 133.881 30.55 A 9.084 9.084 0 0 0 129.8 33.05 Q 127.251 35.735 126.194 41.859 A 40.478 40.478 0 0 0 126 43.1 A 53.953 53.953 0 0 1 124.506 43.406 Q 123.065 43.679 122.083 43.763 A 9.297 9.297 0 0 1 121.3 43.8 A 8.168 8.168 0 0 1 119.672 43.651 Q 117.239 43.155 116.7 41 A 12.15 12.15 0 0 1 120.895 31.523 A 16.267 16.267 0 0 1 122.6 30.2 A 22.509 22.509 0 0 1 130.629 26.86 A 31.974 31.974 0 0 1 137.3 26.2 A 37.588 37.588 0 0 1 142.054 26.479 Q 147.259 27.145 150.187 29.402 A 9.835 9.835 0 0 1 151.05 30.15 A 10.885 10.885 0 0 1 153.438 33.796 Q 155.1 37.766 155.1 44.3 L 155.1 72.5 Q 155.1 75 155.4 76.8 L 163.3 77.8 A 5.785 5.785 0 0 1 163.462 78.705 Q 163.585 79.918 163.312 81.527 A 16.605 16.605 0 0 1 163.3 81.6 Q 156.2 81.9 148.2 83 A 3.54 3.54 0 0 1 147.235 81.186 A 4.377 4.377 0 0 1 147.2 81 L 146.7 74.1 A 33.087 33.087 0 0 1 140.909 79.411 A 21.634 21.634 0 0 1 128.2 83.6 Q 122.352 83.6 118.874 80.498 A 11.264 11.264 0 0 1 118.35 80 A 12.012 12.012 0 0 1 115.147 73.868 A 17.464 17.464 0 0 1 114.8 70.3 Q 114.8 61.1 123.15 56.4 A 33.868 33.868 0 0 1 130.883 53.307 Q 134.651 52.281 139.132 51.801 A 76.002 76.002 0 0 1 145.6 51.4 Z M 210.458 42.017 A 4.687 4.687 0 0 0 212 41 A 16.875 16.875 0 0 0 211.96 39.824 Q 211.742 36.712 210.351 34.289 A 12.681 12.681 0 0 0 206.2 30 A 22.543 22.543 0 0 0 200.677 27.369 A 25.759 25.759 0 0 0 192.8 26.2 A 21.865 21.865 0 0 0 182.288 28.826 A 27.012 27.012 0 0 0 175.75 33.85 Q 168.3 41.5 168.3 55 Q 168.3 69.1 175 76.35 A 21.848 21.848 0 0 0 183.533 82.137 A 24.775 24.775 0 0 0 192.2 83.6 A 30.312 30.312 0 0 0 193.223 83.583 A 23.876 23.876 0 0 0 210.5 75.8 Q 210.119 74.752 209.579 73.998 A 4.634 4.634 0 0 0 208.2 72.7 A 36.711 36.711 0 0 1 207.813 73.024 Q 205.095 75.269 202.335 76.656 A 19.93 19.93 0 0 1 193.3 78.9 Q 188.913 78.9 185.862 76.616 A 12.854 12.854 0 0 1 182.5 72.75 Q 180.011 68.498 179.243 61.736 A 58.083 58.083 0 0 1 178.9 55.2 A 54.127 54.127 0 0 1 179.033 51.342 Q 179.638 42.875 183 37.3 A 22.889 22.889 0 0 1 183.785 36.085 Q 184.985 34.352 186.328 33.156 A 9.788 9.788 0 0 1 193 30.5 A 7.065 7.065 0 0 1 196.858 31.562 Q 199.8 33.422 201.217 38.54 A 32.513 32.513 0 0 1 202.1 43.1 Q 207.802 43.173 210.458 42.017 Z M 88.6 28.2 L 88.4 38.5 A 28.918 28.918 0 0 1 93.001 32.275 A 35.106 35.106 0 0 1 95.35 30.05 Q 99.8 26.2 103.8 26.2 Q 106.849 26.2 109.22 26.877 A 14.479 14.479 0 0 1 109.3 26.9 A 4.971 4.971 0 0 1 109.871 28.281 Q 110.028 28.897 110.078 29.62 A 10.021 10.021 0 0 1 110.1 30.3 A 16.429 16.429 0 0 1 109.103 35.869 A 19.263 19.263 0 0 1 108.7 36.9 A 27.721 27.721 0 0 0 104.371 36.047 A 23.064 23.064 0 0 0 101.8 35.9 A 14.763 14.763 0 0 0 90.573 40.98 A 23.059 23.059 0 0 0 88.3 43.9 L 88.1 61.4 L 88.1 76.5 L 99.2 78 A 6.549 6.549 0 0 1 99.362 78.963 Q 99.488 80.275 99.2 82 A 247.101 247.101 0 0 0 93.343 81.795 Q 89.356 81.7 84.8 81.7 Q 78.7 81.7 70.3 81.9 Q 69.738 80.119 70.23 78.25 A 7.632 7.632 0 0 1 70.3 78 L 78.2 76.9 A 141.067 141.067 0 0 0 78.473 71.762 Q 78.6 68.25 78.6 64.2 L 78.6 36.8 A 23.502 23.502 0 0 0 78.505 34.645 A 18.838 18.838 0 0 0 78.3 33.1 L 70.4 32.1 A 5.785 5.785 0 0 1 70.238 31.195 Q 70.115 29.982 70.388 28.373 A 16.605 16.605 0 0 1 70.4 28.3 Q 75.09 27.96 81.35 27.112 A 325.121 325.121 0 0 0 87.6 26.2 A 4.953 4.953 0 0 1 88.134 26.903 Q 88.535 27.552 88.6 28.2 Z M 424.3 53.4 L 392.9 53.4 A 75.67 75.67 0 0 0 392.856 55.373 Q 392.645 78.317 407.439 78.886 A 19.829 19.829 0 0 0 408.2 78.9 Q 415.1 78.9 422.3 72.8 A 4.634 4.634 0 0 1 423.679 74.098 Q 424.219 74.852 424.6 75.9 A 22.31 22.31 0 0 1 408.411 83.57 A 28.265 28.265 0 0 1 407.1 83.6 A 29.436 29.436 0 0 1 396.712 81.917 Q 383.808 77.066 382.788 58.235 A 61.69 61.69 0 0 1 382.7 54.9 A 41.323 41.323 0 0 1 383.513 46.445 Q 385.119 38.764 389.9 33.75 A 25.529 25.529 0 0 1 396.595 28.622 A 21.614 21.614 0 0 1 406.7 26.2 A 23.615 23.615 0 0 1 412.551 26.878 A 14.847 14.847 0 0 1 421.8 33.5 A 27.767 27.767 0 0 1 425.158 41.531 Q 426.051 45.046 426.302 49.175 A 54.819 54.819 0 0 1 426.4 52.5 A 4.506 4.506 0 0 1 425.449 53.092 A 3.541 3.541 0 0 1 424.3 53.4 Z M 235 18.2 L 235 76.5 L 243.1 78 A 6.549 6.549 0 0 1 243.262 78.963 Q 243.388 80.275 243.1 82 Q 236.8 81.7 230.3 81.7 Q 225.7 81.7 217.3 81.9 Q 216.738 80.119 217.23 78.25 A 7.632 7.632 0 0 1 217.3 78 L 225.2 76.9 A 141.067 141.067 0 0 0 225.473 71.762 Q 225.6 68.25 225.6 64.2 L 225.6 6.9 L 217.4 5.9 A 5.785 5.785 0 0 1 217.238 4.995 Q 217.115 3.782 217.388 2.173 A 16.605 16.605 0 0 1 217.4 2.1 A 144.666 144.666 0 0 0 222.443 1.626 Q 227.675 1.05 234.5 0 A 4.953 4.953 0 0 1 235.034 0.703 Q 235.435 1.352 235.5 2 Q 235.072 4.225 235.01 14.504 A 617.129 617.129 0 0 0 235 18.2 Z M 256.4 77 L 236.1 52.8 L 257 32.6 L 250.4 31.8 A 6.635 6.635 0 0 1 250.231 30.76 Q 250.122 29.499 250.4 27.9 A 154.26 154.26 0 0 0 256.922 28.241 A 125.148 125.148 0 0 0 260.7 28.3 Q 263.686 28.3 268.196 28.124 A 407.339 407.339 0 0 0 271.1 28 Q 271.7 29.8 271.1 31.8 L 263.2 33.2 L 245.5 49.8 L 267.3 75.9 L 275.1 77.9 A 6.549 6.549 0 0 1 275.262 78.863 Q 275.388 80.175 275.1 81.9 Q 268.8 81.6 262.5 81.6 Q 258.2 81.6 249.8 81.8 A 6.978 6.978 0 0 1 249.511 80.192 Q 249.444 79.028 249.8 77.9 L 256.4 77 Z M 145.6 70.6 L 145.6 55 Q 135.537 55.586 130.056 58.511 A 17.99 17.99 0 0 0 129.8 58.65 A 10.738 10.738 0 0 0 126.195 61.776 Q 124.3 64.426 124.3 68.3 A 22.716 22.716 0 0 0 124.419 70.709 Q 124.775 74.038 126.2 75.65 Q 127.771 77.428 130.847 77.736 A 13.606 13.606 0 0 0 132.2 77.8 Q 134.687 77.8 137.621 76.528 A 22.595 22.595 0 0 0 138.85 75.95 A 21.447 21.447 0 0 0 143.583 72.65 A 26.669 26.669 0 0 0 145.6 70.6 Z M 393.2 49.4 L 405.6 49.4 A 97.489 97.489 0 0 0 409.037 49.344 Q 413.8 49.175 416.2 48.5 A 44.022 44.022 0 0 0 415.905 43.235 Q 415.341 38.564 413.7 35.25 A 11.669 11.669 0 0 0 412.12 32.809 A 7.102 7.102 0 0 0 406.5 30.2 A 9.372 9.372 0 0 0 400.018 32.811 Q 398.763 33.954 397.652 35.597 A 13.541 13.541 0 0 0 397.65 35.6 Q 394 41 393.2 49.4 Z" vector-effect="non-scaling-stroke"/></g></svg>